# xmcd CD database file
#
# Track frame offsets:
#	150
#	24733
#	55989
#	81898
#	116221
#	136369
#	164352
#	191770
#	216828
#	252206
#	286879
#
# Disc length: 4321 seconds
#
# Revision: 0
# Processed by: cddbd v1.4PL0 Copyright (c) Steve Scherf et al.
# Submitted via: CDex 1.50Beta7
#
DISCID=a410df0b
DTITLE=Jeff Hamilton Trio - Live At Steamer's
DYEAR=1999
DGENRE=Jazz
TTITLE0=Easy Walker
TTITLE1=Rhythm - N - Ing
TTITLE2=Hamilton House
TTITLE3=Old Man Fluss
TTITLE4=Here, There Everywhere
TTITLE5=Eu Vim Da Bahia
TTITLE6=See See Rider
TTITLE7=Move
TTITLE8=Just Squeeze Me
TTITLE9=Teef
TTITLE10=Blues For Stephanie
EXTD=YEAR: 1999
EXTT0=
EXTT1=
EXTT2=
EXTT3=
EXTT4=
EXTT5=
EXTT6=
EXTT7=
EXTT8=
EXTT9=
EXTT10=
PLAYORDER=
